<?xml version="1.0" encoding="utf-8"?>
<!-- Generator: Adobe Illustrator 23.0.2, SVG Export Plug-In . SVG Version: 6.00 Build 0)  -->
<svg version="1.1" id="Layer_1" xmlns="http://www.w3.org/2000/svg" xmlns:xlink="http://www.w3.org/1999/xlink" x="0px" y="0px"
	 viewBox="0 0 32 32" style="enable-background:new 0 0 32 32;" xml:space="preserve">
<style type="text/css">
	.st0{fill:#A36F43;}
	.st1{fill:#EB5757;}
	.st2{fill:#27AE60;}
	.st3{fill:#FFC578;}
</style>
<g>
	<g>
		<path class="st0" d="M34.3,54.7l3.8-0.2c2-0.1,3-1.2,2.9-2.6c-0.1-1.3-1-2-2-2l0-0.1c0.9-0.3,1.6-0.9,1.5-2
			c-0.1-1.3-1.1-2.2-3-2.1l-3.5,0.2L34.3,54.7z M36.1,53.1L36,50.7l1.6-0.1c0.9,0,1.5,0.4,1.5,1.2c0,0.7-0.4,1.1-1.4,1.2L36.1,53.1z
			 M35.9,49.5l-0.1-2.2l1.4-0.1c0.8,0,1.3,0.4,1.4,1c0,0.7-0.5,1.1-1.3,1.2L35.9,49.5z"/>
		<path class="st0" d="M41.9,54.3l1.8-0.1l-0.1-2.5l0.8-1.2l2.6,3.5l2.2-0.1l-3.5-4.7l3-4.1l-2.2,0.1l-2.9,4.1l-0.1,0l-0.2-3.9
			l-1.8,0.1L41.9,54.3z"/>
	</g>
</g>
<rect x="19.4" y="46" class="st1" width="9.8" height="9.8"/>
<rect x="6.1" y="46" class="st2" width="9.8" height="9.8"/>
<g>
	<path class="st3" d="M26.4,31H5.6c-2.6,0-4.8-2.1-4.8-4.8V26h30.3v0.3C31.2,28.9,29,31,26.4,31z"/>
	<path class="st2" d="M30.3,22.6H1.7c-0.5,0-0.8,0.4-0.8,0.8v1.2c0,0.5,0.4,0.8,0.8,0.8h28.6c0.5,0,0.8-0.4,0.8-0.8v-1.2
		C31.2,23,30.8,22.6,30.3,22.6z"/>
	<path class="st0" d="M30.9,18.9H1.1c-0.5,0-0.8,0.4-0.8,0.8v1.2c0,0.5,0.4,0.8,0.8,0.8h29.8c0.5,0,0.8-0.4,0.8-0.8v-1.2
		C31.7,19.2,31.4,18.9,30.9,18.9z"/>
	<path class="st1" d="M30.3,15.1H1.7c-0.5,0-0.8,0.4-0.8,0.8v1.2c0,0.5,0.4,0.8,0.8,0.8h28.6c0.5,0,0.8-0.4,0.8-0.8v-1.2
		C31.2,15.5,30.8,15.1,30.3,15.1z"/>
	<path class="st3" d="M30.4,14.2c0.3,0,0.6-0.3,0.5-0.6C29.8,6.5,23.5,1,16,1C8.5,1,2.3,6.4,1.1,13.6c-0.1,0.4,0.2,0.7,0.6,0.7H30.4
		z"/>
	<ellipse transform="matrix(0.5313 -0.8472 0.8472 0.5313 -1.9466 11.1886)" class="st0" cx="9.1" cy="7.4" rx="0.6" ry="0.2"/>
	<ellipse class="st0" cx="21" cy="3.1" rx="0.2" ry="0.6"/>
	<ellipse transform="matrix(0.6205 -0.7842 0.7842 0.6205 4.4241 13.9232)" class="st0" cx="16.6" cy="2.4" rx="0.2" ry="0.6"/>
	<ellipse transform="matrix(0.8432 -0.5376 0.5376 0.8432 0.5817 12.9682)" class="st0" cx="22.5" cy="5.5" rx="0.2" ry="0.6"/>
	<ellipse transform="matrix(0.6205 -0.7842 0.7842 0.6205 -4.2777 9.0149)" class="st0" cx="7.2" cy="8.9" rx="0.2" ry="0.6"/>
	<ellipse transform="matrix(0.5313 -0.8472 0.8472 0.5313 1.3933 28.6299)" class="st0" cx="26.6" cy="13.1" rx="0.6" ry="0.2"/>
	<ellipse class="st0" cx="25" cy="5.5" rx="0.2" ry="0.6"/>
	<ellipse transform="matrix(0.6205 -0.7842 0.7842 0.6205 1.9927 13.6276)" class="st0" cx="15.1" cy="4.8" rx="0.2" ry="0.6"/>
	<ellipse class="st0" cx="23.5" cy="11.5" rx="0.2" ry="0.6"/>
	<ellipse transform="matrix(0.9846 -0.1749 0.1749 0.9846 -1.2118 4.7895)" class="st0" cx="26.6" cy="9.3" rx="0.2" ry="0.6"/>
	<ellipse transform="matrix(0.5313 -0.8472 0.8472 0.5313 6.6509 26.3586)" class="st0" cx="27.1" cy="7.2" rx="0.6" ry="0.2"/>
	<ellipse transform="matrix(0.9518 -0.3069 0.3069 0.9518 -1.4588 7.6769)" class="st0" cx="23.7" cy="8.5" rx="0.2" ry="0.6"/>
	<ellipse class="st0" cx="2.8" cy="11" rx="0.2" ry="0.6"/>
	<ellipse transform="matrix(0.8432 -0.5376 0.5376 0.8432 -3.8034 4.1264)" class="st0" cx="5.2" cy="8.6" rx="0.2" ry="0.6"/>
	<ellipse class="st0" cx="18.3" cy="4.4" rx="0.2" ry="0.6"/>
	<ellipse transform="matrix(0.6205 -0.7842 0.7842 0.6205 -7.5713 9.6649)" class="st0" cx="6.2" cy="12.7" rx="0.2" ry="0.6"/>
	<ellipse class="st0" cx="4.3" cy="11.7" rx="0.2" ry="0.6"/>
	<ellipse class="st0" cx="8.9" cy="12.7" rx="0.2" ry="0.6"/>
	<ellipse transform="matrix(0.356 -0.9345 0.9345 0.356 6.1493 14.2134)" class="st0" cx="13.4" cy="2.6" rx="0.6" ry="0.2"/>
	<ellipse transform="matrix(0.6205 -0.7842 0.7842 0.6205 -2.6659 15.4355)" class="st0" cx="14.6" cy="10.5" rx="0.2" ry="0.6"/>
	<ellipse class="st0" cx="7.2" cy="5.5" rx="0.2" ry="0.6"/>
	<ellipse transform="matrix(0.8432 -0.5376 0.5376 0.8432 -2.5038 17.9653)" class="st0" cx="29.5" cy="13.3" rx="0.2" ry="0.6"/>
	<ellipse class="st0" cx="9.7" cy="3.9" rx="0.2" ry="0.6"/>
	<ellipse transform="matrix(0.1791 -0.9838 0.9838 0.1791 -11.532 13.1441)" class="st0" cx="2.1" cy="13.5" rx="0.6" ry="0.2"/>
	<ellipse class="st0" cx="11.8" cy="6.1" rx="0.2" ry="0.6"/>
	<ellipse class="st0" cx="19.8" cy="7.2" rx="0.2" ry="0.6"/>
	<ellipse transform="matrix(0.4543 -0.8908 0.8908 0.4543 1.7235 20.8953)" class="st0" cx="17.9" cy="9" rx="0.6" ry="0.2"/>
	<ellipse transform="matrix(0.909 -0.4167 0.4167 0.909 -3.725 9.7337)" class="st0" cx="20.4" cy="13.4" rx="0.2" ry="0.6"/>
	<ellipse transform="matrix(0.4543 -0.8908 0.8908 0.4543 -2.4791 14.9582)" class="st0" cx="11" cy="9.5" rx="0.6" ry="0.2"/>
	<ellipse transform="matrix(0.6792 -0.7339 0.7339 0.6792 -3.7868 16.659)" class="st0" cx="17.2" cy="12.7" rx="0.6" ry="0.2"/>
	<ellipse transform="matrix(0.4543 -0.8908 0.8908 0.4543 1.5607 17.2118)" class="st0" cx="14.8" cy="7.3" rx="0.6" ry="0.2"/>
	<ellipse transform="matrix(0.4543 -0.8908 0.8908 0.4543 -4.8209 17.7745)" class="st0" cx="12.1" cy="12.8" rx="0.6" ry="0.2"/>
	<ellipse class="st0" cx="28.1" cy="10" rx="0.2" ry="0.6"/>
	<ellipse transform="matrix(0.6205 -0.7842 0.7842 0.6205 -0.484 20.0448)" class="st0" cx="20.5" cy="10.5" rx="0.2" ry="0.6"/>
</g>
</svg>
